# xmcd
#
# Track frame offsets:
#	150
#	12382
#	29435
#	67745
#	78310
#	94294
#	109621
#	121011
#	129102
#	144791
#
# Disc length: 2132 seconds
#
# Revision: 1
# Processed by: cddbd v1.5.2PL0 Copyright (c) Steve Scherf et al.
# Submitted via: audiograbber 1.83.01
#
DISCID=6f08520a
DTITLE=Ike and Tina Turner - Festival Of Live Performances
DYEAR=1967
DGENRE=R&B
TTITLE0=A Fool In Love
TTITLE1=He's Mine
TTITLE2=Stop The Wedding - Please, Please, Please
TTITLE3=If I Can't Be First
TTITLE4=My Man
TTITLE5=You Don't Love Me No More
TTITLE6=It's Gonna Work Out Fine
TTITLE7=If I Only Had You
TTITLE8=I Can't Stop Loving You
TTITLE9=Treat Me Right
EXTD=
EXTT0=
EXTT1=
EXTT2=
EXTT3=
EXTT4=
EXTT5=
EXTT6=
EXTT7=
EXTT8=
EXTT9=
PLAYORDER=
